<svg xmlns="http://www.w3.org/2000/svg" width="18.315" height="12" viewBox="0 0 18.315 12">
  <g id="_003-united-kingdom" data-name="003-united-kingdom" transform="translate(0 -88.275)">
    <path id="Path_107" data-name="Path 107" d="M16.944,88.276H1.372A1.372,1.372,0,0,0,0,89.648V98.9a1.372,1.372,0,0,0,1.372,1.372H16.944A1.372,1.372,0,0,0,18.316,98.9V89.648A1.372,1.372,0,0,0,16.944,88.276Z" transform="translate(0 -0.001)" fill="#41479b"/>
    <path id="Path_108" data-name="Path 108" d="M18.3,89.42a1.372,1.372,0,0,0-1.353-1.145h-.357l-5.85,3.833V88.275H7.579v3.833l-5.85-3.833H1.372A1.372,1.372,0,0,0,.019,89.42l5,3.276H0v3.158H5.019l-5,3.276a1.372,1.372,0,0,0,1.353,1.145h.357l5.85-3.833v3.833h3.158V96.442l5.85,3.833h.357A1.372,1.372,0,0,0,18.3,99.13l-5-3.276h5.019V92.7H13.3Z" fill="#f5f5f5"/>
    <g id="Group_621" data-name="Group 621" transform="translate(0 88.275)">
      <path id="Path_109" data-name="Path 109" d="M10.105,88.276H8.21v5.053H0v1.895H8.21v5.053h1.895V95.223h8.21V93.329h-8.21Z" transform="translate(0 -88.276)" fill="#ff4b55"/>
      <path id="Path_110" data-name="Path 110" d="M9.781,304.471l6.675-4.333H15.3l-6.072,3.941A1.373,1.373,0,0,0,9.781,304.471Z" transform="translate(-8.894 -292.559)" fill="#ff4b55"/>
      <path id="Path_111" data-name="Path 111" d="M315.12,300.138h-1.16l6.465,4.2a1.378,1.378,0,0,0,.44-.468Z" transform="translate(-302.729 -292.559)" fill="#ff4b55"/>
      <path id="Path_112" data-name="Path 112" d="M4.049,96.33l5.642,3.663h1.16l-6.394-4.15A1.377,1.377,0,0,0,4.049,96.33Z" transform="translate(-3.904 -95.571)" fill="#ff4b55"/>
      <path id="Path_113" data-name="Path 113" d="M301.3,94.964l6.083-3.948a1.374,1.374,0,0,0-.562-.388l-6.681,4.337Z" transform="translate(-289.401 -90.543)" fill="#ff4b55"/>
    </g>
  </g>
</svg>
